<?xml version="1.0" standalone="no"?>
<!DOCTYPE svg PUBLIC "-//W3C//DTD SVG 20010904//EN"
 "http://www.w3.org/TR/2001/REC-SVG-20010904/DTD/svg10.dtd">
<svg version="1.0" xmlns="http://www.w3.org/2000/svg"
 width="600.000000pt" height="631.000000pt" viewBox="0 0 600.000000 631.000000"
 preserveAspectRatio="xMidYMid meet">

<g transform="translate(0.000000,631.000000) scale(0.100000,-0.100000)"
fill="#000000" stroke="none">
<path d="M0 3155 l0 -3155 1031 0 1031 0 -55 60 c-99 110 -231 407 -244 552
-6 56 -4 60 36 113 23 31 46 53 52 50 5 -4 8 -2 7 3 -2 5 21 37 50 72 105 125
193 273 246 413 59 156 204 407 321 552 64 81 71 85 133 85 39 0 53 3 49 13
-3 6 -23 53 -45 102 -124 277 -144 571 -52 779 12 25 25 44 30 41 5 -3 18 12
29 33 11 21 27 44 35 51 9 8 16 19 16 25 0 6 16 26 35 45 20 19 38 44 41 56 3
12 16 28 29 35 21 11 28 8 83 -38 166 -137 349 -154 539 -47 24 13 43 22 43
21 0 -2 -12 -30 -27 -62 -40 -85 -39 -177 2 -254 103 -188 398 -214 613 -53
63 47 30 5 -77 -100 l-109 -106 47 -18 c64 -25 189 -23 257 4 117 46 197 129
242 252 28 78 40 202 23 253 -31 94 -131 123 -255 72 -15 -6 -13 2 13 40 149
216 157 481 21 645 l-50 60 48 52 c27 29 53 49 59 46 6 -4 14 -26 18 -50 7
-39 30 -97 40 -97 2 0 1 25 -2 57 -6 56 -6 56 18 49 117 -33 120 -33 150 3 29
35 49 98 49 154 0 94 -81 255 -161 319 l-39 31 41 27 41 28 -31 21 c-118 85
-281 100 -375 36 -32 -22 -36 -22 -36 -7 0 34 52 122 93 157 188 162 555 3
694 -300 52 -114 62 -227 29 -340 -4 -11 1 -4 11 15 22 45 28 171 13 244 -19
92 -82 205 -160 289 -130 139 -253 200 -405 200 -105 1 -144 -13 -212 -75 -51
-48 -80 -98 -89 -158 -7 -42 -7 -42 -43 -36 -45 7 -108 51 -140 96 l-24 35 6
-38 c11 -73 69 -125 152 -136 36 -5 40 -9 43 -38 3 -30 2 -32 -41 -38 -54 -8
-100 0 -144 26 -40 22 -43 12 -5 -24 53 -51 121 -66 187 -41 8 3 17 -7 24 -27
6 -18 11 -33 11 -34 0 -6 -60 -26 -100 -33 l-45 -9 45 -13 c32 -9 56 -10 82
-3 29 8 38 7 43 -4 8 -23 72 -115 105 -152 l31 -34 -25 -26 c-25 -28 -61 -91
-50 -91 3 0 14 10 24 23 10 13 34 31 54 42 34 18 36 18 55 1 19 -18 19 -18
-15 -63 -19 -24 -34 -51 -34 -59 0 -19 -7 -18 -38 5 -81 57 -220 101 -318 101
-45 0 -46 1 -40 28 17 73 18 189 3 243 -62 212 -318 294 -569 181 l-47 -21
-29 62 c-67 140 -96 286 -95 467 1 102 6 154 22 212 20 77 65 181 85 197 16
14 151 -33 224 -77 84 -51 170 -126 218 -189 21 -29 42 -52 46 -53 4 0 22 13
40 28 133 115 275 172 429 172 144 0 282 -57 395 -163 l62 -58 17 58 c40 137
121 259 209 312 55 33 56 33 83 16 49 -31 200 -193 205 -220 6 -29 1 -30 -26
-10 -11 8 -40 15 -64 15 -160 0 -175 -313 -27 -600 79 -152 157 -220 253 -220
25 0 32 5 41 31 14 41 14 123 0 174 -24 88 -93 208 -159 276 -60 62 -64 70
-53 90 9 18 9 26 0 38 -17 21 -87 51 -119 51 -32 0 -34 7 -14 54 18 43 51 66
97 66 50 0 86 -32 151 -131 28 -44 56 -79 62 -79 15 0 50 -56 80 -128 21 -49
76 -290 88 -382 2 -19 10 -26 32 -30 75 -13 96 -135 41 -243 -90 -179 -294
-223 -384 -84 -29 44 -32 41 -55 -60 -20 -90 -20 -181 -1 -258 17 -65 62 -139
86 -141 24 -1 69 -27 69 -39 0 -20 -114 -65 -213 -86 -57 -11 -134 -19 -201
-19 -83 0 -107 -3 -103 -12 96 -224 149 -394 168 -535 15 -114 7 -360 -15
-428 -9 -27 -16 -51 -16 -52 0 -2 16 -3 35 -3 20 0 50 -6 68 -14 42 -18 92
-71 82 -87 -5 -7 -4 -10 2 -6 13 8 44 -63 69 -153 26 -97 24 -328 -5 -485 -67
-365 -243 -744 -397 -855 -65 -46 -129 -48 -191 -6 -24 16 -40 33 -36 39 3 5
1 7 -5 4 -16 -11 -91 81 -126 154 l-32 65 -20 -40 c-102 -212 -345 -569 -375
-550 -5 3 -8 1 -7 -4 4 -13 -54 -60 -96 -77 -19 -8 -64 -15 -99 -15 -145 0
-296 125 -431 357 -54 93 -86 184 -86 249 0 49 3 58 32 84 18 17 56 42 86 57
l54 28 -5 160 c-3 88 -13 211 -21 274 -18 126 -64 311 -78 311 -19 0 -82 -51
-121 -97 -145 -174 -260 -423 -332 -718 -14 -60 -37 -154 -50 -208 -32 -130
-153 -402 -249 -562 -65 -108 -156 -208 -206 -228 -8 -3 841 -6 1888 -6 l1902
-1 0 3155 0 3155 -3000 0 -3000 0 0 -3155z m4945 1641 c90 -38 133 -196 53
-196 -60 0 -138 86 -138 151 0 26 6 41 18 48 23 14 27 13 67 -3z m175 -180
c18 -23 8 -61 -17 -64 -25 -4 -59 39 -49 63 7 19 50 20 66 1z m-909 -277 c70
-24 139 -95 139 -145 0 -12 -9 -33 -21 -48 -17 -22 -28 -26 -72 -26 -91 0
-178 61 -193 137 -15 73 56 112 147 82z m227 -235 c30 -20 28 -52 -4 -65 -35
-13 -90 5 -105 34 -10 17 -8 24 12 39 25 21 56 18 97 -8z"/>
<path d="M3768 1813 c-62 -4 -66 -7 -44 -32 8 -9 38 -53 68 -99 l55 -82 47
100 c25 55 46 105 46 110 0 10 -48 10 -172 3z"/>
</g>
</svg>
